<svg width="16" height="16" viewBox="0 0 16 16" fill="none" xmlns="http://www.w3.org/2000/svg">
<path fill-rule="evenodd" clip-rule="evenodd" d="M10.9454 4.31334H11.082C12.8766 4.31334 14.3332 5.81334 14.3332 7.65334V11.3333C14.3332 13.1733 12.8766 14.6667 11.082 14.6667H4.9177C3.12304 14.6667 1.6665 13.1733 1.6665 11.3333V7.65334C1.6665 5.81334 3.12304 4.31334 4.9177 4.31334H5.05425C5.06726 3.51334 5.37287 2.76668 5.92557 2.20668C6.48478 1.64001 7.20004 1.35334 8.00634 1.33334C9.61893 1.33334 10.9259 2.66668 10.9454 4.31334ZM6.6084 2.92001C6.24427 3.29334 6.04269 3.78668 6.02969 4.31334H9.97014C9.95063 3.22001 9.07931 2.33334 8.00642 2.33334C7.50573 2.33334 6.98554 2.54001 6.6084 2.92001ZM10.4708 6.88001C10.7439 6.88001 10.9585 6.65334 10.9585 6.38001V5.60668C10.9585 5.33334 10.7439 5.10668 10.4708 5.10668C10.2042 5.10668 9.98315 5.33334 9.98315 5.60668V6.38001C9.98315 6.65334 10.2042 6.88001 10.4708 6.88001ZM5.95816 6.38001C5.95816 6.65334 5.74358 6.88001 5.47048 6.88001C5.20388 6.88001 4.9828 6.65334 4.9828 6.38001V5.60668C4.9828 5.33334 5.20388 5.10668 5.47048 5.10668C5.74358 5.10668 5.95816 5.33334 5.95816 5.60668V6.38001Z" fill="#9593A0"/>
</svg>
