<svg width="90" height="19" viewBox="0 0 90 19" fill="none" xmlns="http://www.w3.org/2000/svg">
<path d="M8.96 2.57C8.9 2.68333 8.81333 2.74 8.7 2.74C8.61333 2.74 8.5 2.68 8.36 2.56C8.22667 2.43333 8.04333 2.29667 7.81 2.15C7.57667 1.99667 7.28333 1.85667 6.93 1.73C6.58333 1.60333 6.15333 1.54 5.64 1.54C5.12667 1.54 4.67333 1.61333 4.28 1.76C3.89333 1.90667 3.56667 2.10667 3.3 2.36C3.04 2.61333 2.84 2.90667 2.7 3.24C2.56667 3.57333 2.5 3.92333 2.5 4.29C2.5 4.77 2.6 5.16667 2.8 5.48C3.00667 5.79333 3.27667 6.06 3.61 6.28C3.94333 6.5 4.32 6.68667 4.74 6.84C5.16667 6.98667 5.60333 7.13333 6.05 7.28C6.49667 7.42667 6.93 7.59 7.35 7.77C7.77667 7.94333 8.15667 8.16333 8.49 8.43C8.82333 8.69667 9.09 9.02667 9.29 9.42C9.49667 9.80667 9.6 10.29 9.6 10.87C9.6 11.4633 9.49667 12.0233 9.29 12.55C9.09 13.07 8.79667 13.5233 8.41 13.91C8.02333 14.2967 7.55 14.6033 6.99 14.83C6.43 15.05 5.79 15.16 5.07 15.16C4.13667 15.16 3.33333 14.9967 2.66 14.67C1.98667 14.3367 1.39667 13.8833 0.89 13.31L1.17 12.87C1.25 12.77 1.34333 12.72 1.45 12.72C1.51 12.72 1.58667 12.76 1.68 12.84C1.77333 12.92 1.88667 13.02 2.02 13.14C2.15333 13.2533 2.31333 13.38 2.5 13.52C2.68667 13.6533 2.90333 13.78 3.15 13.9C3.39667 14.0133 3.68 14.11 4 14.19C4.32 14.27 4.68333 14.31 5.09 14.31C5.65 14.31 6.15 14.2267 6.59 14.06C7.03 13.8867 7.4 13.6533 7.7 13.36C8.00667 13.0667 8.24 12.72 8.4 12.32C8.56 11.9133 8.64 11.48 8.64 11.02C8.64 10.52 8.53667 10.11 8.33 9.79C8.13 9.46333 7.86333 9.19333 7.53 8.98C7.19667 8.76 6.81667 8.57667 6.39 8.43C5.97 8.28333 5.53667 8.14 5.09 8C4.64333 7.86 4.20667 7.70333 3.78 7.53C3.36 7.35667 2.98333 7.13667 2.65 6.87C2.31667 6.59667 2.04667 6.26 1.84 5.86C1.64 5.45333 1.54 4.94667 1.54 4.34C1.54 3.86667 1.63 3.41 1.81 2.97C1.99 2.53 2.25333 2.14333 2.6 1.81C2.94667 1.47 3.37333 1.2 3.88 0.999999C4.39333 0.793332 4.97667 0.689999 5.63 0.689999C6.36333 0.689999 7.02 0.806666 7.6 1.04C8.18667 1.27333 8.72 1.63 9.2 2.11L8.96 2.57ZM13.0883 6.73C13.5483 6.17 14.0716 5.72333 14.6583 5.39C15.2516 5.05667 15.9149 4.89 16.6483 4.89C17.1949 4.89 17.6749 4.97667 18.0883 5.15C18.5083 5.32333 18.8549 5.57333 19.1283 5.9C19.4016 6.22667 19.6083 6.62 19.7483 7.08C19.8883 7.54 19.9583 8.06 19.9583 8.64V15H18.9983V8.64C18.9983 7.70667 18.7849 6.97667 18.3583 6.45C17.9316 5.91667 17.2816 5.65 16.4083 5.65C15.7616 5.65 15.1549 5.81667 14.5883 6.15C14.0283 6.47667 13.5283 6.93333 13.0883 7.52V15H12.1283V0.45H13.0883V6.73ZM24.1844 5.05V15H23.2344V5.05H24.1844ZM24.5944 1.62C24.5944 1.74 24.5677 1.85333 24.5144 1.96C24.4677 2.06 24.4044 2.15 24.3244 2.23C24.2444 2.31 24.151 2.37333 24.0444 2.42C23.9377 2.46667 23.8244 2.49 23.7044 2.49C23.5844 2.49 23.471 2.46667 23.3644 2.42C23.2577 2.37333 23.1644 2.31 23.0844 2.23C23.0044 2.15 22.941 2.06 22.8944 1.96C22.8477 1.85333 22.8244 1.74 22.8244 1.62C22.8244 1.5 22.8477 1.38667 22.8944 1.28C22.941 1.16667 23.0044 1.07 23.0844 0.99C23.1644 0.909999 23.2577 0.846666 23.3644 0.799999C23.471 0.753333 23.5844 0.73 23.7044 0.73C23.8244 0.73 23.9377 0.753333 24.0444 0.799999C24.151 0.846666 24.2444 0.909999 24.3244 0.99C24.4044 1.07 24.4677 1.16667 24.5144 1.28C24.5677 1.38667 24.5944 1.5 24.5944 1.62ZM28.5375 12.83C28.7308 13.1167 28.9308 13.36 29.1375 13.56C29.3508 13.7533 29.5742 13.9133 29.8075 14.04C30.0408 14.16 30.2875 14.2467 30.5475 14.3C30.8142 14.3533 31.0942 14.38 31.3875 14.38C31.9742 14.38 32.4875 14.2733 32.9275 14.06C33.3675 13.8467 33.7342 13.5467 34.0275 13.16C34.3275 12.7667 34.5508 12.3 34.6975 11.76C34.8508 11.2133 34.9275 10.6133 34.9275 9.96C34.9275 8.48 34.6542 7.39333 34.1075 6.7C33.5608 6 32.7775 5.65 31.7575 5.65C31.0975 5.65 30.5008 5.82 29.9675 6.16C29.4342 6.5 28.9575 6.97333 28.5375 7.58V12.83ZM28.4975 6.84C28.9375 6.24 29.4508 5.76333 30.0375 5.41C30.6308 5.05667 31.2942 4.88 32.0275 4.88C33.2475 4.88 34.1975 5.30333 34.8775 6.15C35.5642 6.99667 35.9075 8.26667 35.9075 9.96C35.9075 10.6867 35.8108 11.3667 35.6175 12C35.4308 12.6267 35.1508 13.1733 34.7775 13.64C34.4108 14.1 33.9575 14.4633 33.4175 14.73C32.8842 14.9967 32.2675 15.13 31.5675 15.13C30.8942 15.13 30.3108 15.0067 29.8175 14.76C29.3242 14.5133 28.8975 14.15 28.5375 13.67V18.52H27.5775V5.05H28.1075C28.2742 5.05 28.3708 5.13333 28.3975 5.3L28.4975 6.84ZM63.7188 13.55C63.7188 13.33 63.7588 13.1233 63.8388 12.93C63.9254 12.73 64.0421 12.56 64.1888 12.42C64.3354 12.2733 64.5054 12.16 64.6988 12.08C64.8988 11.9933 65.1154 11.95 65.3488 11.95C65.5754 11.95 65.7888 11.9933 65.9888 12.08C66.1888 12.16 66.3621 12.2733 66.5088 12.42C66.6554 12.56 66.7688 12.73 66.8488 12.93C66.9354 13.1233 66.9788 13.33 66.9788 13.55C66.9788 13.7767 66.9354 13.9867 66.8488 14.18C66.7688 14.3733 66.6554 14.5433 66.5088 14.69C66.3621 14.83 66.1888 14.94 65.9888 15.02C65.7888 15.1 65.5754 15.14 65.3488 15.14C65.1154 15.14 64.8988 15.1 64.6988 15.02C64.5054 14.94 64.3354 14.83 64.1888 14.69C64.0421 14.5433 63.9254 14.3733 63.8388 14.18C63.7588 13.9867 63.7188 13.7767 63.7188 13.55ZM71.4344 5.89C71.641 5.69 71.8544 5.50667 72.0744 5.34C72.301 5.17333 72.5377 5.03 72.7844 4.91C73.0377 4.79 73.3077 4.69667 73.5944 4.63C73.8877 4.56333 74.2044 4.53 74.5444 4.53C75.1044 4.53 75.601 4.62667 76.0344 4.82C76.4677 5.01333 76.831 5.28333 77.1244 5.63C77.4244 5.97667 77.6477 6.39 77.7944 6.87C77.9477 7.35 78.0244 7.87667 78.0244 8.45V15H75.2744V8.45C75.2744 7.87667 75.141 7.43333 74.8744 7.12C74.6077 6.8 74.2144 6.64 73.6944 6.64C73.3077 6.64 72.9444 6.72333 72.6044 6.89C72.2644 7.05667 71.941 7.29 71.6344 7.59V15H68.8744V4.69H70.5744C70.921 4.69 71.151 4.85 71.2644 5.17L71.4344 5.89ZM84.062 9.46C84.6287 9.46 85.0454 9.31667 85.312 9.03C85.5854 8.74333 85.722 8.37333 85.722 7.92C85.722 7.44667 85.5854 7.07667 85.312 6.81C85.0454 6.53667 84.6287 6.4 84.062 6.4C83.4954 6.4 83.0787 6.53667 82.812 6.81C82.5454 7.07667 82.412 7.44667 82.412 7.92C82.412 8.36667 82.5454 8.73667 82.812 9.03C83.0854 9.31667 83.502 9.46 84.062 9.46ZM86.672 15.42C86.672 15.24 86.6154 15.0933 86.502 14.98C86.3887 14.8667 86.2354 14.7767 86.042 14.71C85.8554 14.6433 85.632 14.5967 85.372 14.57C85.112 14.5367 84.8354 14.5133 84.542 14.5C84.2487 14.48 83.9454 14.4633 83.632 14.45C83.3187 14.4367 83.012 14.4133 82.712 14.38C82.4787 14.52 82.2854 14.6867 82.132 14.88C81.9854 15.0667 81.912 15.28 81.912 15.52C81.912 15.6867 81.9487 15.84 82.022 15.98C82.102 16.12 82.232 16.24 82.412 16.34C82.592 16.44 82.8287 16.5167 83.122 16.57C83.4154 16.63 83.782 16.66 84.222 16.66C84.6754 16.66 85.0587 16.63 85.372 16.57C85.6854 16.51 85.9387 16.4233 86.132 16.31C86.3254 16.2033 86.462 16.0733 86.542 15.92C86.6287 15.7667 86.672 15.6 86.672 15.42ZM89.412 5.03V6.04C89.412 6.2 89.3654 6.32667 89.272 6.42C89.1854 6.51333 89.0387 6.58333 88.832 6.63L87.992 6.8C88.1054 7.12667 88.162 7.47667 88.162 7.85C88.162 8.36333 88.0554 8.82667 87.842 9.24C87.6354 9.64667 87.3487 9.99667 86.982 10.29C86.6154 10.5767 86.182 10.8 85.682 10.96C85.182 11.1133 84.642 11.19 84.062 11.19C83.6954 11.19 83.352 11.16 83.032 11.1C82.752 11.2733 82.612 11.4633 82.612 11.67C82.612 11.8633 82.7054 12.0033 82.892 12.09C83.0854 12.1767 83.3354 12.24 83.642 12.28C83.9554 12.3133 84.3087 12.3367 84.702 12.35C85.102 12.3567 85.5054 12.3767 85.912 12.41C86.3254 12.4433 86.7287 12.5033 87.122 12.59C87.522 12.67 87.8754 12.8067 88.182 13C88.4954 13.1867 88.7454 13.4367 88.932 13.75C89.1254 14.0633 89.222 14.4667 89.222 14.96C89.222 15.42 89.1087 15.8667 88.882 16.3C88.6554 16.7333 88.3254 17.12 87.892 17.46C87.4654 17.8 86.9387 18.0733 86.312 18.28C85.6854 18.4867 84.972 18.59 84.172 18.59C83.3787 18.59 82.6887 18.5133 82.102 18.36C81.522 18.2133 81.0387 18.0133 80.652 17.76C80.272 17.5133 79.9887 17.2267 79.802 16.9C79.6154 16.5733 79.522 16.2333 79.522 15.88C79.522 15.42 79.662 15.03 79.942 14.71C80.222 14.39 80.6087 14.1333 81.102 13.94C80.842 13.7933 80.632 13.6033 80.472 13.37C80.3187 13.13 80.242 12.82 80.242 12.44C80.242 12.1333 80.352 11.81 80.572 11.47C80.7987 11.13 81.1454 10.8467 81.612 10.62C81.0854 10.34 80.6687 9.96667 80.362 9.5C80.0554 9.02667 79.902 8.47667 79.902 7.85C79.902 7.33667 80.0054 6.87333 80.212 6.46C80.4254 6.04667 80.7187 5.69667 81.092 5.41C81.4654 5.11667 81.9054 4.89333 82.412 4.74C82.9187 4.58667 83.4687 4.51 84.062 4.51C84.942 4.51 85.7187 4.68333 86.392 5.03H89.412Z" fill="white"/>
<path d="M44.4327 12.6C44.9193 12.6 45.356 12.52 45.7427 12.36C46.1293 12.1933 46.456 11.96 46.7227 11.66C46.9893 11.36 47.1927 10.9967 47.3327 10.57C47.4727 10.1433 47.5427 9.66333 47.5427 9.13V0.489999H50.5427V9.13C50.5427 10.01 50.3993 10.82 50.1127 11.56C49.8327 12.2933 49.4293 12.9267 48.9027 13.46C48.376 13.9933 47.736 14.41 46.9827 14.71C46.2293 15.01 45.3793 15.16 44.4327 15.16C43.486 15.16 42.6327 15.01 41.8727 14.71C41.1193 14.41 40.4793 13.9933 39.9527 13.46C39.426 12.9267 39.0193 12.2933 38.7327 11.56C38.4527 10.82 38.3127 10.01 38.3127 9.13V0.489999H41.3127V9.13C41.3127 9.66333 41.3827 10.1433 41.5227 10.57C41.6627 10.9967 41.866 11.36 42.1327 11.66C42.3993 11.96 42.726 12.1933 43.1127 12.36C43.4993 12.52 43.9393 12.6 44.4327 12.6ZM55.443 12.28C55.703 12.58 55.983 12.79 56.283 12.91C56.5896 13.03 56.9163 13.09 57.263 13.09C57.5963 13.09 57.8996 13.0267 58.173 12.9C58.4463 12.7733 58.6796 12.5767 58.873 12.31C59.073 12.0367 59.2263 11.69 59.333 11.27C59.4396 10.85 59.493 10.35 59.493 9.77C59.493 9.19667 59.4463 8.71 59.353 8.31C59.2663 7.91 59.1396 7.58667 58.973 7.34C58.813 7.09333 58.6163 6.91667 58.383 6.81C58.1496 6.69667 57.8896 6.64 57.603 6.64C57.1163 6.64 56.7063 6.73667 56.373 6.93C56.0463 7.11667 55.7363 7.39333 55.443 7.76V12.28ZM55.283 6.04C55.4896 5.81333 55.7096 5.60667 55.943 5.42C56.1763 5.22667 56.4263 5.06333 56.693 4.93C56.9596 4.79 57.2463 4.68333 57.553 4.61C57.8596 4.53 58.193 4.49 58.553 4.49C59.1063 4.49 59.613 4.61 60.073 4.85C60.5396 5.08333 60.9396 5.42667 61.273 5.88C61.6063 6.32667 61.8663 6.87667 62.053 7.53C62.2396 8.18333 62.333 8.93 62.333 9.77C62.333 10.5433 62.2263 11.26 62.013 11.92C61.8063 12.5733 61.5096 13.14 61.123 13.62C60.7363 14.1 60.2696 14.4767 59.723 14.75C59.183 15.0167 58.5796 15.15 57.913 15.15C57.353 15.15 56.8763 15.0667 56.483 14.9C56.0963 14.7333 55.7496 14.5067 55.443 14.22V18.33H52.683V4.69H54.383C54.7296 4.69 54.9596 4.85 55.073 5.17L55.283 6.04Z" fill="#F67366"/>
</svg>
