<svg width="603" height="609" viewBox="0 0 603 609" fill="none" xmlns="http://www.w3.org/2000/svg">
<path d="M0 0L0.856916 5.70956L5.37308 2.11267L0 0ZM272 48L271.755 47.5639L272 48ZM600 204L602.656 198.874L596.889 199.136L600 204ZM2.41702 3.83723C2.52496 3.96867 2.63341 4.10029 2.74237 4.23209L3.5131 3.59493C3.40483 3.46397 3.29708 3.33319 3.18983 3.20259L2.41702 3.83723ZM9.38646 11.7925C11.603 14.1737 13.9672 16.587 16.4745 19.0135L17.17 18.2949C14.675 15.8803 12.323 13.4794 10.1184 11.1111L9.38646 11.7925ZM23.8664 25.8279C26.3354 27.9976 28.9149 30.164 31.6014 32.3135L32.2262 31.5326C29.5517 29.3928 26.9841 27.2364 24.5265 25.0767L23.8664 25.8279ZM39.6195 38.4364C42.2873 40.3801 45.0438 42.2985 47.8867 44.1811L48.4388 43.3473C45.6086 41.4731 42.8643 39.5632 40.2084 37.6282L39.6195 38.4364ZM56.4138 49.5565C59.2617 51.2634 62.1848 52.9291 65.1809 54.5446L65.6555 53.6643C62.673 52.0562 59.7631 50.3981 56.9279 48.6987L56.4138 49.5565ZM74.1701 59.1273C77.1685 60.5695 80.2318 61.9577 83.3581 63.2842L83.7487 62.3636C80.6372 61.0434 77.5881 59.6616 74.6035 58.2262L74.1701 59.1273ZM92.7238 66.9968C95.8469 68.1487 99.0265 69.2365 102.261 70.253L102.561 69.299C99.3421 68.2874 96.178 67.205 93.0699 66.0585L92.7238 66.9968ZM111.949 73.0359C115.172 73.8753 118.444 74.642 121.765 75.3299L121.968 74.3507C118.664 73.6663 115.408 72.9034 112.201 72.0681L111.949 73.0359ZM131.685 77.1224C134.976 77.6303 138.31 78.0592 141.685 78.4035L141.787 77.4086C138.428 77.0661 135.112 76.6394 131.838 76.1341L131.685 77.1224ZM151.738 79.1669C155.06 79.3331 158.42 79.416 161.817 79.4106L161.815 78.4106C158.436 78.4159 155.093 78.3335 151.788 78.1682L151.738 79.1669ZM171.896 79.1362C175.215 78.961 178.567 78.7003 181.949 78.3499L181.846 77.3552C178.481 77.7039 175.146 77.9632 171.843 78.1376L171.896 79.1362ZM191.955 77.0611C195.241 76.5552 198.553 75.9636 201.892 75.2826L201.693 74.3028C198.369 74.9806 195.072 75.5693 191.803 76.0727L191.955 77.0611ZM211.714 73.0371C214.922 72.2244 218.153 71.3284 221.406 70.3456L221.117 69.3884C217.878 70.3667 214.662 71.2588 211.468 72.0677L211.714 73.0371ZM230.974 67.2245C234.101 66.1289 237.248 64.9525 240.412 63.6926L240.043 62.7635C236.891 64.0183 233.758 65.1898 230.644 66.2807L230.974 67.2245ZM249.719 59.7678C252.747 58.4187 255.792 56.9925 258.852 55.4867L258.411 54.5894C255.362 56.0896 252.329 57.5105 249.312 58.8543L249.719 59.7678ZM267.774 50.8923C269.261 50.0926 270.751 49.2739 272.245 48.4361L271.755 47.5639C270.267 48.3989 268.782 49.2148 267.3 50.0117L267.774 50.8923ZM272.245 48.4361C273.702 47.6186 275.159 46.818 276.615 46.034L276.141 45.1535C274.679 45.9402 273.218 46.7437 271.755 47.5639L272.245 48.4361ZM285.347 41.5283C288.329 40.0558 291.308 38.6521 294.284 37.3158L293.874 36.4035C290.887 37.7449 287.897 39.1538 284.904 40.6317L285.347 41.5283ZM303.287 33.4721C306.374 32.2224 309.456 31.0443 312.532 29.9365L312.193 28.9957C309.105 30.1079 306.011 31.2906 302.912 32.5452L303.287 33.4721ZM321.848 26.7886C324.999 25.7934 328.144 24.8711 331.279 24.0202L331.017 23.0551C327.869 23.9095 324.711 24.8357 321.546 25.835L321.848 26.7886ZM340.859 21.6348C344.077 20.9051 347.285 20.2499 350.482 19.6674L350.302 18.6836C347.092 19.2687 343.87 19.9268 340.638 20.6596L340.859 21.6348ZM360.206 18.113C363.485 17.6622 366.75 17.2874 369.999 16.9867L369.907 15.9909C366.643 16.293 363.363 16.6696 360.07 17.1224L360.206 18.113ZM379.802 16.3002C383.1 16.1435 386.381 16.0626 389.643 16.0557L389.641 15.0557C386.364 15.0627 383.068 15.1439 379.754 15.3013L379.802 16.3002ZM399.497 16.2601C402.79 16.404 406.061 16.6229 409.31 16.9147L409.4 15.9187C406.136 15.6255 402.849 15.4056 399.541 15.2611L399.497 16.2601ZM419.08 18.0196C422.351 18.4661 425.596 18.9865 428.815 19.5785L428.995 18.595C425.762 18.0002 422.502 17.4774 419.216 17.0288L419.08 18.0196ZM438.452 21.5825C441.657 22.3267 444.833 23.1421 447.977 24.0264L448.247 23.0638C445.089 22.1753 441.898 21.3561 438.678 20.6084L438.452 21.5825ZM457.393 26.9102C460.52 27.947 463.612 29.0524 466.668 30.224L467.026 29.2902C463.956 28.1132 460.849 27.0026 457.708 25.961L457.393 26.9102ZM475.776 33.9556C478.789 35.2714 481.764 36.6523 484.698 38.0957L485.14 37.1984C482.192 35.7483 479.203 34.3611 476.176 33.0391L475.776 33.9556ZM493.436 42.643C496.321 44.2284 499.162 45.8751 501.958 47.5805L502.478 46.7268C499.67 45.0136 496.816 43.3593 493.918 41.7666L493.436 42.643ZM510.243 52.8952C512.969 54.7325 515.648 56.6269 518.276 58.5756L518.871 57.7724C516.231 55.8147 513.541 53.9116 510.802 52.0659L510.243 52.8952ZM526.052 64.6192C528.604 66.6974 531.103 68.8285 533.546 71.0094L534.212 70.2634C531.758 68.0724 529.247 65.9315 526.683 63.8437L526.052 64.6192ZM540.739 77.7311C543.09 80.031 545.382 82.3789 547.613 84.7719L548.344 84.09C546.103 81.6857 543.8 79.3269 541.438 77.0163L540.739 77.7311ZM554.156 92.1249C556.286 94.6351 558.352 97.1885 560.352 99.7821L561.143 99.1716C559.135 96.5655 557.059 93.9999 554.918 91.4777L554.156 92.1249ZM566.174 107.721C568.055 110.42 569.866 113.157 571.604 115.929L572.451 115.398C570.705 112.612 568.885 109.862 566.994 107.15L566.174 107.721ZM576.621 124.39C578.228 127.262 579.758 130.166 581.209 133.099L582.105 132.656C580.647 129.707 579.109 126.788 577.493 123.902L576.621 124.39ZM585.342 142.035C586.644 145.056 587.863 148.103 588.996 151.173L589.934 150.827C588.795 147.74 587.57 144.676 586.261 141.639L585.342 142.035ZM592.146 160.493C593.112 163.633 593.988 166.794 594.771 169.971L595.742 169.732C594.954 166.536 594.074 163.357 593.102 160.199L592.146 160.493ZM596.848 179.587C597.448 182.815 597.951 186.057 598.355 189.309L599.347 189.186C598.94 185.914 598.434 182.652 597.832 179.404L596.848 179.587ZM599.27 199.102C599.279 199.246 599.288 199.39 599.296 199.534L600.294 199.475C600.286 199.329 600.277 199.184 600.268 199.039L599.27 199.102Z" fill="#F67366"/>
<path d="M0 609L0.856916 603.29L5.37308 606.887L0 609ZM272 561L271.755 561.436L272 561ZM600 405L602.656 410.126L596.889 409.864L600 405ZM2.41702 605.163C2.52496 605.031 2.63341 604.9 2.74237 604.768L3.5131 605.405C3.40483 605.536 3.29708 605.667 3.18983 605.797L2.41702 605.163ZM9.38646 597.208C11.603 594.826 13.9672 592.413 16.4745 589.987L17.17 590.705C14.675 593.12 12.323 595.521 10.1184 597.889L9.38646 597.208ZM23.8664 583.172C26.3354 581.002 28.9149 578.836 31.6014 576.687L32.2262 577.467C29.5517 579.607 26.9841 581.764 24.5265 583.923L23.8664 583.172ZM39.6195 570.564C42.2873 568.62 45.0438 566.702 47.8867 564.819L48.4388 565.653C45.6086 567.527 42.8643 569.437 40.2084 571.372L39.6195 570.564ZM56.4138 559.444C59.2617 557.737 62.1848 556.071 65.1809 554.455L65.6555 555.336C62.673 556.944 59.7631 558.602 56.9279 560.301L56.4138 559.444ZM74.1701 549.873C77.1685 548.431 80.2318 547.042 83.3581 545.716L83.7487 546.636C80.6372 547.957 77.5881 549.338 74.6035 550.774L74.1701 549.873ZM92.7238 542.003C95.8469 540.851 99.0265 539.764 102.261 538.747L102.561 539.701C99.3421 540.713 96.178 541.795 93.0699 542.941L92.7238 542.003ZM111.949 535.964C115.172 535.125 118.444 534.358 121.765 533.67L121.968 534.649C118.664 535.334 115.408 536.097 112.201 536.932L111.949 535.964ZM131.685 531.878C134.976 531.37 138.31 530.941 141.685 530.597L141.787 531.591C138.428 531.934 135.112 532.361 131.838 532.866L131.685 531.878ZM151.738 529.833C155.06 529.667 158.42 529.584 161.817 529.589L161.815 530.589C158.436 530.584 155.093 530.667 151.788 530.832L151.738 529.833ZM171.896 529.864C175.215 530.039 178.567 530.3 181.949 530.65L181.846 531.645C178.481 531.296 175.146 531.037 171.843 530.862L171.896 529.864ZM191.955 531.939C195.241 532.445 198.553 533.036 201.892 533.717L201.693 534.697C198.369 534.019 195.072 533.431 191.803 532.927L191.955 531.939ZM211.714 535.963C214.922 536.776 218.153 537.672 221.406 538.654L221.117 539.612C217.878 538.633 214.662 537.741 211.468 536.932L211.714 535.963ZM230.974 541.776C234.101 542.871 237.248 544.047 240.412 545.307L240.043 546.236C236.891 544.982 233.758 543.81 230.644 542.719L230.974 541.776ZM249.719 549.232C252.747 550.581 255.792 552.008 258.852 553.513L258.411 554.411C255.362 552.91 252.329 551.49 249.312 550.146L249.719 549.232ZM267.774 558.108C269.261 558.907 270.751 559.726 272.245 560.564L271.755 561.436C270.267 560.601 268.782 559.785 267.3 558.988L267.774 558.108ZM272.245 560.564C273.702 561.381 275.159 562.182 276.615 562.966L276.141 563.847C274.679 563.06 273.218 562.256 271.755 561.436L272.245 560.564ZM285.347 567.472C288.329 568.944 291.308 570.348 294.284 571.684L293.874 572.596C290.887 571.255 287.897 569.846 284.904 568.368L285.347 567.472ZM303.287 575.528C306.374 576.778 309.456 577.956 312.532 579.064L312.193 580.004C309.105 578.892 306.011 577.709 302.912 576.455L303.287 575.528ZM321.848 582.211C324.999 583.207 328.144 584.129 331.279 584.98L331.017 585.945C327.869 585.09 324.711 584.164 321.546 583.165L321.848 582.211ZM340.859 587.365C344.077 588.095 347.285 588.75 350.482 589.333L350.302 590.316C347.092 589.731 343.87 589.073 340.638 588.34L340.859 587.365ZM360.206 590.887C363.485 591.338 366.75 591.713 369.999 592.013L369.907 593.009C366.643 592.707 363.363 592.33 360.07 591.878L360.206 590.887ZM379.802 592.7C383.1 592.857 386.381 592.937 389.643 592.944L389.641 593.944C386.364 593.937 383.068 593.856 379.754 593.699L379.802 592.7ZM399.497 592.74C402.79 592.596 406.061 592.377 409.31 592.085L409.4 593.081C406.136 593.375 402.849 593.594 399.541 593.739L399.497 592.74ZM419.08 590.98C422.351 590.534 425.596 590.013 428.815 589.421L428.995 590.405C425.762 591 422.502 591.523 419.216 591.971L419.08 590.98ZM438.452 587.417C441.657 586.673 444.833 585.858 447.977 584.974L448.247 585.936C445.089 586.825 441.898 587.644 438.678 588.392L438.452 587.417ZM457.393 582.09C460.52 581.053 463.612 579.948 466.668 578.776L467.026 579.71C463.956 580.887 460.849 581.997 457.708 583.039L457.393 582.09ZM475.776 575.044C478.789 573.729 481.764 572.348 484.698 570.904L485.14 571.802C482.192 573.252 479.203 574.639 476.176 575.961L475.776 575.044ZM493.436 566.357C496.321 564.772 499.162 563.125 501.958 561.419L502.478 562.273C499.67 563.986 496.816 565.641 493.918 567.233L493.436 566.357ZM510.243 556.105C512.969 554.268 515.648 552.373 518.276 550.424L518.871 551.228C516.231 553.185 513.541 555.088 510.802 556.934L510.243 556.105ZM526.052 544.381C528.604 542.303 531.103 540.172 533.546 537.991L534.212 538.737C531.758 540.928 529.247 543.068 526.683 545.156L526.052 544.381ZM540.739 531.269C543.09 528.969 545.382 526.621 547.613 524.228L548.344 524.91C546.103 527.314 543.8 529.673 541.438 531.984L540.739 531.269ZM554.156 516.875C556.286 514.365 558.352 511.812 560.352 509.218L561.143 509.828C559.135 512.435 557.059 515 554.918 517.522L554.156 516.875ZM566.174 501.279C568.055 498.58 569.866 495.843 571.604 493.071L572.451 493.602C570.705 496.388 568.885 499.138 566.994 501.85L566.174 501.279ZM576.621 484.61C578.228 481.738 579.758 478.834 581.209 475.901L582.105 476.344C580.647 479.293 579.109 482.212 577.493 485.098L576.621 484.61ZM585.342 466.965C586.644 463.944 587.863 460.897 588.996 457.827L589.934 458.173C588.795 461.26 587.57 464.324 586.261 467.361L585.342 466.965ZM592.146 448.507C593.112 445.367 593.988 442.206 594.771 439.029L595.742 439.268C594.954 442.464 594.074 445.643 593.102 448.801L592.146 448.507ZM596.848 429.413C597.448 426.185 597.951 422.943 598.355 419.691L599.347 419.814C598.94 423.086 598.434 426.348 597.832 429.596L596.848 429.413ZM599.27 409.898C599.279 409.754 599.288 409.61 599.296 409.466L600.294 409.525C600.286 409.671 600.277 409.816 600.268 409.961L599.27 409.898Z" fill="#F67366"/>
</svg>
