<svg width="107" height="107" viewBox="0 0 107 107" fill="none" xmlns="http://www.w3.org/2000/svg">
<g filter="url(#filter0_d_229_629)">
<rect x="25" y="25" width="57" height="57" rx="28.5" fill="white"/>
</g>
<path fill-rule="evenodd" clip-rule="evenodd" d="M46.789 44.95H53.3919C56.153 44.95 58.0808 46.8527 58.0808 49.5795V57.4206C58.0808 60.1473 56.153 62.05 53.3919 62.05H46.789C44.0279 62.05 42.1001 60.1473 42.1001 57.4206V49.5795C42.1001 46.8527 44.0279 44.95 46.789 44.95ZM62.5722 47.6621C63.0726 47.4074 63.6598 47.4341 64.1374 47.735C64.6151 48.0347 64.9001 48.5555 64.9001 49.125V57.8758C64.9001 58.4463 64.6151 58.966 64.1374 59.2657C63.8764 59.4289 63.5845 59.5123 63.2904 59.5123C63.0453 59.5123 62.8002 59.4544 62.571 59.3375L60.8827 58.4857C60.258 58.1686 59.8704 57.532 59.8704 56.8249V50.1747C59.8704 49.4664 60.258 48.8298 60.8827 48.515L62.5722 47.6621Z" fill="#2C2D5B"/>
<defs>
<filter id="filter0_d_229_629" x="0" y="0" width="107" height="107" filterUnits="userSpaceOnUse" color-interpolation-filters="sRGB">
<feFlood flood-opacity="0" result="BackgroundImageFix"/>
<feColorMatrix in="SourceAlpha" type="matrix" values="0 0 0 0 0 0 0 0 0 0 0 0 0 0 0 0 0 0 127 0" result="hardAlpha"/>
<feOffset/>
<feGaussianBlur stdDeviation="12.5"/>
<feComposite in2="hardAlpha" operator="out"/>
<feColorMatrix type="matrix" values="0 0 0 0 0.592 0 0 0 0 0.592 0 0 0 0 0.592 0 0 0 0.25 0"/>
<feBlend mode="normal" in2="BackgroundImageFix" result="effect1_dropShadow_229_629"/>
<feBlend mode="normal" in="SourceGraphic" in2="effect1_dropShadow_229_629" result="shape"/>
</filter>
</defs>
</svg>
